<svg width="300" height="135" viewBox="0 0 300 135" fill="none" xmlns="http://www.w3.org/2000/svg">
<g clip-path="url(#clip0)">
<path d="M29.1917 111.375H297.755" stroke="black"/>
<path d="M29.1917 115.425V111.375" stroke="black"/>
<path d="M31.8812 122.786C31.8812 124.056 31.6644 124.999 31.2308 125.616C30.7972 126.234 30.1195 126.542 29.1976 126.542C28.2874 126.542 27.6136 126.241 27.1761 125.64C26.7386 125.034 26.512 124.132 26.4964 122.933V121.486C26.4964 120.232 26.7132 119.3 27.1468 118.691C27.5804 118.081 28.2601 117.777 29.1859 117.777C30.1038 117.777 30.7796 118.071 31.2132 118.661C31.6468 119.247 31.8695 120.154 31.8812 121.38V122.786ZM30.7972 121.304C30.7972 120.386 30.6683 119.718 30.4105 119.3C30.1527 118.878 29.7445 118.667 29.1859 118.667C28.6312 118.667 28.2269 118.876 27.973 119.294C27.7191 119.712 27.5882 120.355 27.5804 121.222V122.956C27.5804 123.878 27.7132 124.56 27.9788 125.001C28.2484 125.439 28.6546 125.657 29.1976 125.657C29.7327 125.657 30.1292 125.45 30.387 125.036C30.6488 124.622 30.7855 123.97 30.7972 123.079V121.304Z" fill="black"/>
<path d="M67.5579 115.425V111.375" stroke="black"/>
<path d="M68.4603 126.425H67.3704V119.2L65.1849 120.003V119.019L68.2904 117.853H68.4603V126.425Z" fill="black"/>
<path d="M105.924 115.425V111.375" stroke="black"/>
<path d="M108.854 126.425H103.264V125.646L106.217 122.364C106.654 121.868 106.955 121.466 107.119 121.157C107.287 120.845 107.371 120.523 107.371 120.191C107.371 119.745 107.236 119.38 106.967 119.095C106.697 118.81 106.338 118.667 105.889 118.667C105.35 118.667 104.93 118.821 104.629 119.13C104.332 119.435 104.184 119.861 104.184 120.407H103.1C103.1 119.622 103.352 118.987 103.856 118.503C104.363 118.019 105.041 117.777 105.889 117.777C106.682 117.777 107.309 117.986 107.77 118.404C108.231 118.818 108.461 119.37 108.461 120.062C108.461 120.902 107.926 121.902 106.856 123.062L104.57 125.54H108.854V126.425Z" fill="black"/>
<path d="M144.29 115.425V111.375" stroke="black"/>
<path d="M143.206 121.632H144.021C144.532 121.624 144.935 121.489 145.228 121.228C145.521 120.966 145.667 120.612 145.667 120.167C145.667 119.167 145.169 118.667 144.173 118.667C143.704 118.667 143.329 118.802 143.048 119.071C142.771 119.337 142.632 119.691 142.632 120.132H141.548C141.548 119.456 141.794 118.896 142.286 118.45C142.782 118.001 143.411 117.777 144.173 117.777C144.978 117.777 145.608 117.989 146.065 118.415C146.523 118.841 146.751 119.433 146.751 120.191C146.751 120.562 146.63 120.921 146.388 121.269C146.149 121.616 145.823 121.876 145.409 122.048C145.878 122.196 146.239 122.443 146.493 122.786C146.751 123.13 146.88 123.55 146.88 124.046C146.88 124.812 146.63 125.419 146.13 125.868C145.63 126.318 144.98 126.542 144.179 126.542C143.378 126.542 142.726 126.325 142.222 125.892C141.722 125.458 141.472 124.886 141.472 124.175H142.562C142.562 124.624 142.708 124.984 143.001 125.253C143.294 125.523 143.687 125.657 144.179 125.657C144.702 125.657 145.103 125.521 145.38 125.247C145.657 124.974 145.796 124.581 145.796 124.07C145.796 123.573 145.644 123.193 145.339 122.927C145.034 122.661 144.595 122.525 144.021 122.517H143.206V121.632Z" fill="black"/>
<path d="M182.656 115.425V111.375" stroke="black"/>
<path d="M184.572 123.56H185.756V124.445H184.572V126.425H183.482V124.445H179.598V123.806L183.418 117.894H184.572V123.56ZM180.828 123.56H183.482V119.376L183.353 119.611L180.828 123.56Z" fill="black"/>
<path d="M221.022 115.425V111.375" stroke="black"/>
<path d="M218.86 122.148L219.294 117.894H223.665V118.896H220.214L219.956 121.222C220.374 120.976 220.848 120.853 221.38 120.853C222.157 120.853 222.774 121.111 223.231 121.626C223.688 122.138 223.917 122.831 223.917 123.706C223.917 124.585 223.679 125.279 223.202 125.786C222.729 126.29 222.067 126.542 221.216 126.542C220.462 126.542 219.847 126.333 219.37 125.915C218.893 125.497 218.622 124.919 218.556 124.181H219.581C219.647 124.669 219.821 125.038 220.102 125.288C220.384 125.534 220.755 125.657 221.216 125.657C221.72 125.657 222.114 125.486 222.399 125.142C222.688 124.798 222.833 124.323 222.833 123.718C222.833 123.148 222.677 122.691 222.364 122.347C222.056 121.999 221.643 121.825 221.128 121.825C220.655 121.825 220.284 121.929 220.014 122.136L219.727 122.37L218.86 122.148Z" fill="black"/>
<path d="M259.388 115.425V111.375" stroke="black"/>
<path d="M260.982 117.888V118.808H260.783C259.939 118.823 259.267 119.073 258.767 119.558C258.267 120.042 257.978 120.724 257.9 121.603C258.349 121.087 258.963 120.829 259.74 120.829C260.482 120.829 261.074 121.091 261.515 121.614C261.961 122.138 262.183 122.814 262.183 123.642C262.183 124.521 261.943 125.224 261.463 125.751C260.986 126.279 260.346 126.542 259.541 126.542C258.724 126.542 258.062 126.23 257.555 125.605C257.047 124.976 256.793 124.167 256.793 123.179V122.763C256.793 121.193 257.127 119.993 257.795 119.165C258.467 118.333 259.465 117.907 260.789 117.888H260.982ZM259.558 121.732C259.187 121.732 258.846 121.843 258.533 122.066C258.221 122.288 258.004 122.568 257.883 122.904V123.302C257.883 124.005 258.041 124.571 258.357 125.001C258.674 125.431 259.068 125.646 259.541 125.646C260.029 125.646 260.412 125.466 260.689 125.107C260.971 124.747 261.111 124.277 261.111 123.695C261.111 123.109 260.969 122.636 260.683 122.277C260.402 121.913 260.027 121.732 259.558 121.732Z" fill="black"/>
<path d="M297.754 115.425V111.375" stroke="black"/>
<path d="M300.602 118.503L297.069 126.425H295.932L299.454 118.784H294.837V117.894H300.602V118.503Z" fill="black"/>
<path d="M29.1917 3.375V111.375" stroke="black"/>
<path d="M26.4971 111.375H29.1917" stroke="black"/>
<path d="M23.5719 110.636C23.5719 111.906 23.3551 112.849 22.9215 113.466C22.4879 114.084 21.8102 114.392 20.8883 114.392C19.9782 114.392 19.3044 114.091 18.8669 113.49C18.4294 112.884 18.2028 111.982 18.1872 110.783V109.336C18.1872 108.082 18.404 107.15 18.8376 106.541C19.2712 105.931 19.9508 105.627 20.8766 105.627C21.7946 105.627 22.4704 105.921 22.904 106.511C23.3376 107.097 23.5602 108.004 23.5719 109.23V110.636ZM22.4879 109.154C22.4879 108.236 22.359 107.568 22.1012 107.15C21.8434 106.728 21.4352 106.517 20.8766 106.517C20.3219 106.517 19.9176 106.726 19.6637 107.144C19.4098 107.562 19.279 108.205 19.2712 109.072V110.806C19.2712 111.728 19.404 112.41 19.6696 112.851C19.9391 113.289 20.3454 113.507 20.8883 113.507C21.4235 113.507 21.82 113.3 22.0778 112.886C22.3395 112.472 22.4762 111.82 22.4879 110.929V109.154Z" fill="black"/>
<path d="M26.4971 84.375H29.1917" stroke="black"/>
<path d="M23.8121 87.275H18.2222V86.4957L21.1754 83.2144C21.6129 82.7184 21.9136 82.316 22.0777 82.0074C22.2457 81.6949 22.3297 81.3727 22.3297 81.0406C22.3297 80.5953 22.1949 80.2301 21.9254 79.9449C21.6558 79.6598 21.2965 79.5172 20.8472 79.5172C20.3082 79.5172 19.8883 79.6715 19.5875 79.9801C19.2906 80.2848 19.1422 80.7105 19.1422 81.2574H18.0582C18.0582 80.4723 18.3101 79.8375 18.814 79.3531C19.3218 78.8687 19.9996 78.6266 20.8472 78.6266C21.6402 78.6266 22.2672 78.8355 22.7281 79.2535C23.189 79.6676 23.4195 80.2203 23.4195 80.9117C23.4195 81.7516 22.8843 82.7516 21.814 83.9117L19.5289 86.3902H23.8121V87.275ZM23.5718 97.6363C23.5718 98.9059 23.3551 99.8492 22.9215 100.466C22.4879 101.084 21.8101 101.392 20.8883 101.392C19.9781 101.392 19.3043 101.091 18.8668 100.49C18.4293 99.8844 18.2027 98.982 18.1871 97.7828V96.3355C18.1871 95.0816 18.4039 94.15 18.8375 93.5406C19.2711 92.9312 19.9508 92.6266 20.8765 92.6266C21.7945 92.6266 22.4703 92.9215 22.9039 93.5113C23.3375 94.0973 23.5601 95.0035 23.5718 96.2301V97.6363ZM22.4879 96.1539C22.4879 95.2359 22.359 94.568 22.1011 94.15C21.8433 93.7281 21.4351 93.5172 20.8765 93.5172C20.3218 93.5172 19.9176 93.7262 19.6636 94.1441C19.4097 94.5621 19.2789 95.2047 19.2711 96.0719V97.8062C19.2711 98.7281 19.4039 99.4098 19.6695 99.8512C19.939 100.289 20.3453 100.507 20.8883 100.507C21.4234 100.507 21.8199 100.3 22.0777 99.8863C22.3394 99.4723 22.4761 98.8199 22.4879 97.9293V96.1539Z" fill="black"/>
<path d="M26.4971 57.375H29.1917" stroke="black"/>
<path d="M22.7984 57.4098H23.982V58.2946H22.7984V60.275H21.7086V58.2946H17.8238V57.6559L21.6441 51.7438H22.7984V57.4098ZM19.0543 57.4098H21.7086V53.2262L21.5797 53.4606L19.0543 57.4098ZM23.5718 70.6364C23.5718 71.9059 23.3551 72.8492 22.9215 73.4664C22.4879 74.0836 21.8101 74.3922 20.8883 74.3922C19.9781 74.3922 19.3043 74.0914 18.8668 73.4899C18.4293 72.8844 18.2027 71.9821 18.1871 70.7828V69.3356C18.1871 68.0817 18.4039 67.15 18.8375 66.5406C19.2711 65.9313 19.9508 65.6266 20.8765 65.6266C21.7945 65.6266 22.4703 65.9215 22.9039 66.5114C23.3375 67.0973 23.5601 68.0035 23.5718 69.2301V70.6364ZM22.4879 69.1539C22.4879 68.236 22.359 67.568 22.1011 67.15C21.8433 66.7281 21.4351 66.5172 20.8765 66.5172C20.3218 66.5172 19.9176 66.7262 19.6636 67.1442C19.4097 67.5621 19.2789 68.2047 19.2711 69.0719V70.8063C19.2711 71.7281 19.4039 72.4098 19.6695 72.8512C19.939 73.2887 20.3453 73.5074 20.8883 73.5074C21.4234 73.5074 21.8199 73.3004 22.0777 72.8864C22.3394 72.4723 22.4761 71.8199 22.4879 70.9293V69.1539Z" fill="black"/>
<path d="M26.4971 30.375H29.1917" stroke="black"/>
<path d="M22.4761 24.7379V25.6578H22.2769C21.4332 25.6735 20.7613 25.9235 20.2613 26.4078C19.7613 26.8922 19.4722 27.5739 19.3941 28.4528C19.8433 27.9371 20.4566 27.6793 21.234 27.6793C21.9761 27.6793 22.5679 27.941 23.0093 28.4645C23.4547 28.9879 23.6773 29.6637 23.6773 30.4918C23.6773 31.3707 23.4371 32.0739 22.9566 32.6012C22.4801 33.1285 21.8394 33.3922 21.0347 33.3922C20.2183 33.3922 19.5562 33.0797 19.0484 32.4547C18.5406 31.8258 18.2867 31.0172 18.2867 30.0289V29.6129C18.2867 28.0426 18.6207 26.8434 19.2886 26.0153C19.9605 25.1832 20.9586 24.7574 22.2828 24.7379H22.4761ZM21.0523 28.5817C20.6812 28.5817 20.3394 28.693 20.0269 28.9156C19.7144 29.1383 19.4976 29.4176 19.3765 29.7535V30.152C19.3765 30.8551 19.5347 31.4215 19.8511 31.8512C20.1676 32.2809 20.5621 32.4957 21.0347 32.4957C21.523 32.4957 21.9058 32.316 22.1832 31.9567C22.4644 31.5973 22.6051 31.1266 22.6051 30.5446C22.6051 29.9586 22.4625 29.486 22.1773 29.1266C21.8961 28.7633 21.5211 28.5817 21.0523 28.5817ZM23.5718 43.6364C23.5718 44.9059 23.3551 45.8492 22.9215 46.4664C22.4879 47.0836 21.8101 47.3922 20.8883 47.3922C19.9781 47.3922 19.3043 47.0914 18.8668 46.4899C18.4293 45.8844 18.2027 44.9821 18.1871 43.7828V42.3356C18.1871 41.0817 18.4039 40.15 18.8375 39.5406C19.2711 38.9313 19.9508 38.6266 20.8765 38.6266C21.7945 38.6266 22.4703 38.9215 22.9039 39.5114C23.3375 40.0973 23.5601 41.0035 23.5718 42.2301V43.6364ZM22.4879 42.1539C22.4879 41.236 22.359 40.568 22.1011 40.15C21.8433 39.7281 21.4351 39.5172 20.8765 39.5172C20.3218 39.5172 19.9176 39.7262 19.6636 40.1442C19.4097 40.5621 19.2789 41.2047 19.2711 42.0719V43.8063C19.2711 44.7281 19.4039 45.4098 19.6695 45.8512C19.939 46.2887 20.3453 46.5074 20.8883 46.5074C21.4234 46.5074 21.8199 46.3004 22.0777 45.8864C22.3394 45.4723 22.4761 44.8199 22.4879 43.9293V42.1539Z" fill="black"/>
<path d="M26.4971 3.375H29.1917" stroke="black"/>
<path d="M23.3961 2.67032C23.3961 3.0961 23.2828 3.47501 23.0562 3.80704C22.8336 4.13907 22.5308 4.39883 22.148 4.58633C22.5933 4.77774 22.9449 5.05704 23.2027 5.42422C23.4644 5.79141 23.5953 6.20743 23.5953 6.67227C23.5953 7.41055 23.3453 7.99844 22.8453 8.43594C22.3492 8.87344 21.6949 9.09219 20.8824 9.09219C20.0621 9.09219 19.4039 8.87344 18.9078 8.43594C18.4156 7.99454 18.1695 7.40665 18.1695 6.67227C18.1695 6.21133 18.2945 5.79532 18.5445 5.42422C18.7984 5.05313 19.148 4.77188 19.5933 4.58047C19.2144 4.39297 18.9156 4.13321 18.6968 3.80118C18.4781 3.46915 18.3687 3.09219 18.3687 2.67032C18.3687 1.95157 18.5992 1.38126 19.0601 0.959381C19.5211 0.537506 20.1285 0.326569 20.8824 0.326569C21.6324 0.326569 22.2379 0.537506 22.6988 0.959381C23.1636 1.38126 23.3961 1.95157 23.3961 2.67032ZM22.5113 6.64883C22.5113 6.17227 22.359 5.7836 22.0543 5.48282C21.7535 5.18204 21.359 5.03165 20.8707 5.03165C20.3824 5.03165 19.9898 5.18008 19.6929 5.47696C19.4 5.77383 19.2535 6.16446 19.2535 6.64883C19.2535 7.13321 19.3961 7.51407 19.6812 7.79141C19.9703 8.06876 20.3707 8.20743 20.8824 8.20743C21.3902 8.20743 21.7886 8.06876 22.0777 7.79141C22.3668 7.51016 22.5113 7.1293 22.5113 6.64883ZM20.8824 1.21719C20.4566 1.21719 20.1109 1.35001 19.8453 1.61563C19.5836 1.87735 19.4527 2.23477 19.4527 2.6879C19.4527 3.12149 19.5816 3.47305 19.8394 3.74258C20.1011 4.00821 20.4488 4.14102 20.8824 4.14102C21.316 4.14102 21.6617 4.00821 21.9195 3.74258C22.1812 3.47305 22.3121 3.12149 22.3121 2.6879C22.3121 2.2543 22.1773 1.90079 21.9078 1.62735C21.6383 1.35391 21.2965 1.21719 20.8824 1.21719ZM23.5718 19.3363C23.5718 20.6059 23.3551 21.5492 22.9215 22.1664C22.4879 22.7836 21.8101 23.0922 20.8883 23.0922C19.9781 23.0922 19.3043 22.7914 18.8668 22.1898C18.4293 21.5844 18.2027 20.682 18.1871 19.4828V18.0356C18.1871 16.7816 18.4039 15.85 18.8375 15.2406C19.2711 14.6313 19.9508 14.3266 20.8765 14.3266C21.7945 14.3266 22.4703 14.6215 22.9039 15.2113C23.3375 15.7973 23.5601 16.7035 23.5718 17.9301V19.3363ZM22.4879 17.8539C22.4879 16.9359 22.359 16.268 22.1011 15.85C21.8433 15.4281 21.4351 15.2172 20.8765 15.2172C20.3218 15.2172 19.9176 15.4262 19.6636 15.8441C19.4097 16.2621 19.2789 16.9047 19.2711 17.7719V19.5063C19.2711 20.4281 19.4039 21.1098 19.6695 21.5512C19.939 21.9887 20.3453 22.2074 20.8883 22.2074C21.4234 22.2074 21.8199 22.0004 22.0777 21.5863C22.3394 21.1723 22.4761 20.5199 22.4879 19.6293V17.8539Z" fill="black"/>
<path d="M29.1917 111.375H297.755" stroke="#CCCCCC"/>
<path d="M29.1917 84.375H297.755" stroke="#CCCCCC"/>
<path d="M29.1917 57.375H297.755" stroke="#CCCCCC"/>
<path d="M29.1917 30.375H297.755" stroke="#CCCCCC"/>
<path d="M29.1917 3.375H297.755" stroke="#CCCCCC"/>
<path d="M29.1917 3.375V111.375" stroke="#CCCCCC"/>
<path d="M67.5579 3.375V111.375" stroke="#CCCCCC"/>
<path d="M105.924 3.375V111.375" stroke="#CCCCCC"/>
<path d="M144.29 3.375V111.375" stroke="#CCCCCC"/>
<path d="M182.656 3.375V111.375" stroke="#CCCCCC"/>
<path d="M221.022 3.375V111.375" stroke="#CCCCCC"/>
<path d="M259.388 3.375V111.375" stroke="#CCCCCC"/>
<path d="M297.754 3.375V111.375" stroke="#CCCCCC"/>
<path d="M29.1917 10.125L67.5578 37.125L105.924 19.575L144.29 57.375L182.656 91.125L221.022 37.125L259.388 81.675L297.755 50.625V111.375H259.388H221.022H182.656H144.29H105.924H67.5578H29.1917V10.125Z" fill="#2D3192" fill-opacity="0.6"/>
</g>
<defs>
<clipPath id="clip0">
<rect width="300" height="135" fill="white"/>
</clipPath>
</defs>
</svg>
